{"title":"Red Heat-720p MP4 AAC x264 BRRip 1988-CC","uid":7370935,"size":2102014543,"categoryP":"video","categoryS":"hd___movies","magnet":"?xt=urn:btih:00ed85d1be087160f48d3081b88f3cd10f53507b&amp;dn=Red+Heat-720p+MP4+AAC+x264+BRRip+1988-CC&amp;tr=udp%3A%2F%2Ftracker.openbittorrent.com%3A80&amp;tr=udp%3A%2F%2Fopen.demonii.com%3A1337&amp;tr=udp%3A%2F%2Ftracker.coppersurfer.tk%3A6969&amp;tr=udp%3A%2F%2Fexodus.desync.com%3A6969","seeders":12,"leechers":5,"uploader":"Caveman44","files":-1,"time":1340228192,"description":" &lt;a href=&quot;http://www.imdb.com/title/tt0095963&quot; rel=&quot;nofollow&quot; target=&quot;_NEW&quot;&gt;http://www.imdb.com/title/tt0095963&lt;/a&gt;\n\nSource: Red.Heat.1988.720p.BluRay.x264-CiNEFiLE\n\nSubs: Brazilian, Bulgarian, Croatian, Danish, Dutch, English, Finnish, German, Greek, Hungarian, Polish, Slovenian, Spanish and Swedish.\n\nSample and Screens included.\n\nGeneral\nComplete name                    : Red Heat-720p MP4 AAC x264 BRRip 1988-CC.mp4\nFormat                           : MPEG-4\nFormat profile                   : Base Media\nCodec ID                         : isom\nFile size                        : 1.93 GiB\nDuration                         : 1h 44mn\nOverall bit rate                 : 2 653 Kbps\nEncoded date                     : UTC 2012-06-17 07:55:01\n\nVideo\nID                               : 1\nFormat                           : AVC\nFormat/Info                      : Advanced Video Codec\nFormat profile                   : &lt;a class=&quot;__cf_email__&quot; href=&quot;/cdn-cgi/l/email-protection&quot; data-cfemail=&quot;e4ac8d838ca4a8d7cad5&quot;&gt;[email&amp;#160;protected]&lt;/a&gt;&lt;script cf-hash='f9e31' type=&quot;text/javascript&quot;&gt;\n/* &lt;![CDATA[ */!function(){try{var t=&quot;currentScript&quot;in document?document.currentScript:function(){for(var t=document.getElementsByTagName(&quot;script&quot;),e=t.length;e--;)if(t[e].getAttribute(&quot;cf-hash&quot;))return t[e]}();if(t&amp;&amp;t.previousSibling){var e,r,n,i,c=t.previousSibling,a=c.getAttribute(&quot;data-cfemail&quot;);if(a){for(e=&quot;&quot;,r=parseInt(a.substr(0,2),16),n=2;a.length-n;n+=2)i=parseInt(a.substr(n,2),16)^r,e+=String.fromCharCode(i);e=document.createTextNode(e),c.parentNode.replaceChild(e,c)}}}catch(u){}}();/* ]]&gt; */&lt;/script&gt;\nFormat settings, CABAC           : Yes\nFormat settings, ReFrames        : 5 frames\nCodec ID                         : avc1\nCodec ID/Info                    : Advanced Video Coding\nDuration                         : 1h 44mn\nBit rate mode                    : Variable\nBit rate                         : 2 265 Kbps\nMaximum bit rate                 : 15.2 Mbps\nWidth                            : 1 280 pixels\nHeight                           : 720 pixels\nDisplay aspect ratio             : 16:9\nFrame rate mode                  : Variable\nFrame rate                       : 23.976 fps\nMinimum frame rate               : 19.048 fps\nMaximum frame rate               : 24.390 fps\nResolution                       : 24 bits\nColorimetry                      : 4:2:0\nScan type                        : Progressive\nBits/(Pixel*Frame)               : 0.103\nStream size                      : 1.65 GiB (85%)\nWriting library                  : x264 core 112\n\nAudio\nID                               : 2\nFormat                           : AAC\nFormat/Info                      : Advanced Audio Codec\nFormat version                   : Version 4\nFormat profile                   : LC\nFormat settings, SBR             : No\nCodec ID                         : 40\nDuration                         : 1h 44mn\nBit rate mode                    : Variable\nBit rate                         : 384 Kbps\nMaximum bit rate                 : 669 Kbps\nChannel(s)                       : 6 channels\nChannel positions                : Front: L C R, Rear: L R, LFE\nSampling rate                    : 48.0 KHz\nResolution                       : 16 bits\nStream size                      : 287 MiB (14%)\nLanguage                         : English\n\nEnjoy...\n\nRequested by jwinston78.\n\nMore coming up.","torrent":{"xt":"urn:btih:00ed85d1be087160f48d3081b88f3cd10f53507b","amp;dn":"Red+Heat-720p+MP4+AAC+x264+BRRip+1988-CC","amp;tr":["udp%3A%2F%2Ftracker.openbittorrent.com%3A80","udp%3A%2F%2Fopen.demonii.com%3A1337","udp%3A%2F%2Ftracker.coppersurfer.tk%3A6969","udp%3A%2F%2Fexodus.desync.com%3A6969"],"infoHash":"00ed85d1be087160f48d3081b88f3cd10f53507b","infoHashBuffer":{"type":"Buffer","data":[0,237,133,209,190,8,113,96,244,141,48,129,184,143,60,209,15,83,80,123]},"announce":[],"urlList":[]}}